<svg width="17" height="11" viewBox="0 0 17 11" fill="none" xmlns="http://www.w3.org/2000/svg">
<path fill-rule="evenodd" clip-rule="evenodd" d="M4.22911 0.158783C4.46624 0.15854 4.67902 0.304359 4.76437 0.525592L8.44338 10.0617C8.5573 10.357 8.41027 10.6887 8.11498 10.8026C7.81969 10.9166 7.48796 10.7695 7.37403 10.4743L6.16924 7.35137H2.30533L1.10833 10.4731C0.99502 10.7687 0.66359 10.9164 0.368064 10.8031C0.0725385 10.6898 -0.0751729 10.3583 0.0381415 10.0628L3.69461 0.526693C3.7795 0.305285 3.99199 0.159028 4.22911 0.158783ZM4.23135 2.32829L5.79338 6.37713H2.67889L4.23135 2.32829ZM12.492 2.97495C10.6114 2.97495 9.17983 4.66974 9.17983 6.87499C9.17983 9.19487 10.726 10.775 12.492 10.775C13.4347 10.775 14.4123 10.3817 15.077 9.63973V10.2221C15.077 10.5069 15.3079 10.7379 15.5927 10.7379C15.8776 10.7379 16.1085 10.5069 16.1085 10.2221V3.56286C16.1085 3.278 15.8776 3.04708 15.5927 3.04708C15.3079 3.04708 15.077 3.278 15.077 3.56286V4.13959C14.4479 3.42643 13.516 2.97495 12.492 2.97495ZM15.077 8.23733V5.37608C14.6296 4.5498 13.6869 3.94986 12.7073 3.94986C11.5864 3.94986 10.3557 4.99086 10.3557 6.87486C10.3557 8.64424 11.4718 9.79986 12.7073 9.79986C13.7197 9.79986 14.6388 9.03618 15.077 8.23733Z" fill="#DCDCDC"/>
</svg>
