<svg width="46" height="7" viewBox="0 0 46 7" fill="none" xmlns="http://www.w3.org/2000/svg">
<path fill-rule="evenodd" clip-rule="evenodd" d="M39.2921 3.84541C39.5601 5.16554 40.7271 6.15915 42.1262 6.15915C43.7234 6.15915 45.0181 4.86428 45.0181 3.26698C45.0181 1.66967 43.7234 0.374802 42.1262 0.374802C40.7271 0.374802 39.5601 1.36841 39.2921 2.68854H0.578409C0.258972 2.68854 1.88053e-05 2.94752 1.88053e-05 3.26698C1.88053e-05 3.58644 0.258972 3.84541 0.578409 3.84541H39.2921ZM42.1262 1.53167C43.0845 1.53167 43.8614 2.30859 43.8614 3.26698C43.8614 4.22536 43.0845 5.00228 42.1262 5.00228C41.1679 5.00228 40.3911 4.22536 40.3911 3.26698C40.3911 2.3086 41.1679 1.53167 42.1262 1.53167Z" fill="#DCDCDC"/>
</svg>
