<svg width="16" height="9" viewBox="0 0 16 9" fill="none" xmlns="http://www.w3.org/2000/svg">
<path d="M12.7357 1.48239C13.7198 1.67031 14.4685 2.40344 14.6575 3.31542C14.7004 3.5225 14.7036 3.78627 14.7036 4.5C14.7036 5.21374 14.7004 5.4775 14.6575 5.68459C14.4685 6.59657 13.7198 7.3297 12.7357 7.51762C12.5111 7.56051 12.2271 7.56325 11.4872 7.56325L10.4151 7.56325C10.0767 7.56325 9.80241 7.83754 9.80241 8.1759C9.80241 8.51426 10.0767 8.78855 10.4151 8.78855L11.5616 8.78856C12.202 8.78865 12.6118 8.78872 12.9655 8.72117C14.4118 8.44501 15.5628 7.35432 15.8573 5.93319C15.9291 5.5866 15.929 5.18621 15.9289 4.57734V4.42263C15.929 3.81379 15.9291 3.4134 15.8573 3.06682C15.5629 1.64569 14.4118 0.555 12.9655 0.278834C12.6118 0.211291 12.202 0.211352 11.5616 0.211448L10.4151 0.211455C10.0767 0.211455 9.80241 0.485748 9.80241 0.824105C9.80241 1.16246 10.0767 1.43675 10.4151 1.43675L11.4872 1.43675C12.2271 1.43676 12.5111 1.4395 12.7357 1.48239Z" fill="#DCDCDC"/>
<path d="M5.51387 1.43675C5.85222 1.43675 6.12652 1.16246 6.12652 0.824105C6.12652 0.485748 5.85222 0.211456 5.51387 0.211455L4.36737 0.211448C3.72693 0.211352 3.3171 0.211291 2.9634 0.278834C1.51717 0.555 0.36608 1.64569 0.0716219 3.06682C-0.000192277 3.41341 -0.000112282 3.8138 9.85986e-06 4.42266L9.94415e-06 4.57737C-0.00011186 5.18622 -0.000191599 5.5866 0.0716212 5.93319C0.36608 7.35432 1.51717 8.44501 2.96339 8.72117C3.3171 8.78871 3.72691 8.78865 4.36733 8.78856L5.51387 8.78855C5.85222 8.78855 6.12652 8.51426 6.12652 8.1759C6.12652 7.83754 5.85222 7.56325 5.51387 7.56325H4.44173C3.70181 7.56325 3.41782 7.56051 3.19322 7.51762C2.20912 7.3297 1.4604 6.59657 1.27144 5.68459C1.22853 5.4775 1.22532 5.21374 1.22532 4.5C1.22532 3.78627 1.22853 3.5225 1.27144 3.31542C1.4604 2.40344 2.20912 1.67031 3.19322 1.48239C3.41782 1.4395 3.70181 1.43676 4.44173 1.43676L5.51387 1.43675Z" fill="#DCDCDC"/>
<path d="M11.0285 5.11265C11.3669 5.11265 11.6412 4.83835 11.6412 4.5C11.6412 4.16164 11.3669 3.88735 11.0285 3.88735H4.90202C4.56366 3.88735 4.28937 4.16164 4.28937 4.5C4.28937 4.83835 4.56366 5.11265 4.90202 5.11265H11.0285Z" fill="#DCDCDC"/>
</svg>
