<svg width="8" height="14" viewBox="0 0 8 14" fill="none" xmlns="http://www.w3.org/2000/svg">
<path fill-rule="evenodd" clip-rule="evenodd" d="M0.195261 3.93602C-0.065087 4.19637 -0.065087 4.61847 0.195261 4.87882C0.455609 5.13917 0.877717 5.13917 1.13806 4.87882L3.99998 2.01691L6.86189 4.87882C7.12224 5.13917 7.54434 5.13917 7.80469 4.87882C8.06504 4.61847 8.06504 4.19637 7.80469 3.93602L4.47138 0.602705C4.34635 0.477681 4.17679 0.407444 3.99998 0.407444C3.82317 0.407444 3.6536 0.477681 3.52857 0.602705L0.195261 3.93602ZM7.80478 10.064C8.06513 9.80363 8.06513 9.38153 7.80478 9.12118C7.54443 8.86083 7.12233 8.86083 6.86198 9.12118L4.00007 11.9831L1.13816 9.12118C0.877807 8.86083 0.4557 8.86083 0.195352 9.12118C-0.0649963 9.38153 -0.0649963 9.80363 0.195352 10.064L3.52867 13.3973C3.78901 13.6576 4.21112 13.6576 4.47147 13.3973L7.80478 10.064Z" fill="white"/>
</svg>
