<svg width="14" height="15" viewBox="0 0 14 15" fill="none" xmlns="http://www.w3.org/2000/svg">
<path fill-rule="evenodd" clip-rule="evenodd" d="M6.99566 0.504333C3.13207 0.504333 0 3.6364 0 7.5C0 11.3636 3.13207 14.4957 6.99566 14.4957C10.8592 14.4957 13.9913 11.3636 13.9913 7.5C13.9913 3.6364 10.8592 0.504333 6.99566 0.504333ZM1.04285 7.5C1.04285 4.21235 3.70802 1.54718 6.99566 1.54718C10.2833 1.54718 12.9485 4.21235 12.9485 7.5C12.9485 10.7876 10.2833 13.4528 6.99566 13.4528C3.70802 13.4528 1.04285 10.7876 1.04285 7.5ZM6.99578 9.69559C8.2083 9.69559 9.19124 8.71265 9.19124 7.50013C9.19124 6.28761 8.2083 5.30466 6.99578 5.30466C5.78326 5.30466 4.80031 6.28761 4.80031 7.50013C4.80031 8.71265 5.78326 9.69559 6.99578 9.69559Z" fill="#DCDCDC"/>
</svg>
