<svg width="11" height="15" viewBox="0 0 11 15" fill="none" xmlns="http://www.w3.org/2000/svg">
<path fill-rule="evenodd" clip-rule="evenodd" d="M9.95677 6.7099C10.1954 6.94855 10.5824 6.94855 10.821 6.7099C11.0597 6.47125 11.0597 6.08431 10.821 5.84566L5.93212 0.956769C5.69347 0.718115 5.30653 0.718115 5.06788 0.956769L0.17899 5.84566C-0.0596633 6.08431 -0.0596633 6.47124 0.17899 6.7099C0.417644 6.94855 0.804578 6.94855 1.04323 6.7099L5.5 2.25313L9.95677 6.7099ZM9.95677 14.0432C10.1954 14.2819 10.5824 14.2819 10.821 14.0432C11.0597 13.8046 11.0597 13.4176 10.821 13.179L5.93212 8.29009C5.69347 8.05144 5.30653 8.05144 5.06788 8.29009L0.17899 13.179C-0.0596633 13.4176 -0.0596633 13.8046 0.17899 14.0432C0.417644 14.2819 0.804578 14.2819 1.04323 14.0432L5.5 9.58646L9.95677 14.0432Z" fill="#DCDCDC"/>
</svg>
