<svg width="13" height="14" viewBox="0 0 13 14" fill="none" xmlns="http://www.w3.org/2000/svg">
<path fill-rule="evenodd" clip-rule="evenodd" d="M0.701172 0.601244C0.369801 0.601244 0.101172 0.869873 0.101172 1.20124C0.101172 1.53261 0.369801 1.80124 0.701172 1.80124L6.49993 1.80124H12.2987C12.6301 1.80124 12.8987 1.53261 12.8987 1.20124C12.8987 0.869873 12.6301 0.601244 12.2987 0.601244L6.49993 0.601244L0.701172 0.601244ZM2.93462 6.81723C2.70031 7.05155 2.70031 7.43144 2.93462 7.66576C3.16894 7.90007 3.54884 7.90007 3.78315 7.66576L5.89988 5.54903L5.89988 12.7988C5.89988 13.1301 6.16851 13.3988 6.49988 13.3988C6.83125 13.3988 7.09988 13.1301 7.09988 12.7988V5.54903L9.21661 7.66576C9.45092 7.90007 9.83082 7.90007 10.0651 7.66576C10.2994 7.43144 10.2994 7.05155 10.0651 6.81723L6.92414 3.67624C6.81162 3.56372 6.65901 3.5005 6.49988 3.5005C6.34075 3.5005 6.18814 3.56372 6.07561 3.67624L2.93462 6.81723Z" fill="#98EC65" fill-opacity="0.9"/>
</svg>
